<svg width="14" height="12" viewBox="0 0 14 12" fill="none" xmlns="http://www.w3.org/2000/svg">
<path d="M13.6663 1.86656C13.1652 2.08396 12.6353 2.22767 12.093 2.29323C12.6651 1.95144 13.0939 1.41375 13.2997 0.779896C12.762 1.09994 12.1735 1.32543 11.5597 1.44656C11.1494 1.00161 10.603 0.705427 10.0062 0.604463C9.40944 0.5035 8.79604 0.603468 8.2622 0.888689C7.72837 1.17391 7.3043 1.62825 7.0565 2.18045C6.80871 2.73266 6.7512 3.35149 6.89301 3.9399C5.80596 3.88491 4.74264 3.60186 3.77211 3.10914C2.80159 2.61641 1.94557 1.92502 1.25967 1.0799C1.0191 1.50001 0.892687 1.97578 0.893008 2.4599C0.892155 2.90948 1.00249 3.35231 1.21418 3.74894C1.42587 4.14557 1.73235 4.4837 2.10634 4.73323C1.67166 4.7214 1.24626 4.60476 0.866341 4.39323V4.42656C0.869599 5.05649 1.09034 5.66596 1.49122 6.15187C1.8921 6.63779 2.44851 6.97032 3.06634 7.09323C2.82851 7.16561 2.58159 7.20377 2.33301 7.20656C2.16093 7.20455 1.98929 7.18895 1.81967 7.1599C1.99561 7.70177 2.33609 8.17533 2.79372 8.51467C3.25136 8.85401 3.80339 9.04226 4.37301 9.05323C3.41114 9.81007 2.2236 10.2231 0.999674 10.2266C0.776831 10.2273 0.554165 10.2139 0.333008 10.1866C1.58263 10.9934 3.03888 11.4217 4.52634 11.4199C5.5528 11.4306 6.5711 11.2366 7.52175 10.8493C8.4724 10.462 9.33636 9.88915 10.0631 9.16423C10.7899 8.4393 11.365 7.57682 11.7547 6.62717C12.1444 5.67751 12.341 4.65971 12.333 3.63323C12.333 3.5199 12.333 3.3999 12.333 3.2799C12.8561 2.88977 13.3073 2.41151 13.6663 1.86656Z" fill="white"/>
</svg>
