<svg width="16" height="12" viewBox="0 0 16 12" fill="none" xmlns="http://www.w3.org/2000/svg">
<path d="M15.3337 4.47332C15.3666 3.51909 15.158 2.572 14.727 1.71999C14.4346 1.37039 14.0288 1.13446 13.5803 1.05332C11.7254 0.885006 9.8627 0.816019 8.00034 0.846656C6.14477 0.814628 4.28882 0.881389 2.44034 1.04666C2.07489 1.11313 1.73669 1.28455 1.46701 1.53999C0.86701 2.09332 0.800343 3.03999 0.733677 3.83999C0.636951 5.27837 0.636951 6.72161 0.733677 8.15999C0.752964 8.61026 0.820006 9.05721 0.933677 9.49332C1.01406 9.83003 1.17669 10.1416 1.40701 10.4C1.67852 10.669 2.0246 10.8501 2.40034 10.92C3.83762 11.0974 5.28582 11.1709 6.73368 11.14C9.06701 11.1733 11.1137 11.14 13.5337 10.9533C13.9186 10.8878 14.2745 10.7064 14.5537 10.4333C14.7403 10.2466 14.8797 10.0181 14.9603 9.76666C15.1988 9.03507 15.3159 8.2694 15.307 7.49999C15.3337 7.12666 15.3337 4.87332 15.3337 4.47332ZM6.49368 7.89999V3.77332L10.4403 5.84666C9.33368 6.45999 7.87368 7.15332 6.49368 7.89999Z" fill="white"/>
</svg>
